<svg width="48" height="48" viewBox="0 0 48 48" fill="none" xmlns="http://www.w3.org/2000/svg">
<rect width="48" height="48" rx="24" fill="#3B5998"/>
<path d="M36.625 24C36.625 17.5781 31.4219 12.375 25 12.375C18.5781 12.375 13.375 17.5781 13.375 24C13.375 29.8125 17.5938 34.6406 23.1719 35.4844V27.375H20.2188V24H23.1719V21.4688C23.1719 18.5625 24.9062 16.9219 27.5312 16.9219C28.8438 16.9219 30.1562 17.1562 30.1562 17.1562V20.0156H28.7031C27.25 20.0156 26.7812 20.9062 26.7812 21.8438V24H30.0156L29.5 27.375H26.7812V35.4844C32.3594 34.6406 36.625 29.8125 36.625 24Z" fill="white"/>
</svg>
