<svg width="50" height="71" viewBox="0 0 50 71" fill="none" xmlns="http://www.w3.org/2000/svg">
<path d="M5.1105 70V69L5.10723 69L5.1105 70ZM1.03978 65.9425L2.03978 65.9425V65.9425H1.03978ZM1.03978 5.29279H2.03978V5.29278L1.03978 5.29279ZM5.1105 1.23533L5.10723 2.23533H5.1105V1.23533ZM37.2519 5.29279L38.2519 5.30456V5.29279H37.2519ZM12.5094 5.89721C11.9571 5.89721 11.5094 6.34492 11.5094 6.89721C11.5094 7.44949 11.9571 7.89721 12.5094 7.89721V5.89721ZM20.5713 7.89721C21.1236 7.89721 21.5713 7.44949 21.5713 6.89721C21.5713 6.34492 21.1236 5.89721 20.5713 5.89721V7.89721ZM17.1105 63.0862C16.5582 63.0862 16.1105 63.5339 16.1105 64.0862C16.1105 64.6384 16.5582 65.0862 17.1105 65.0862V63.0862ZM21.1414 65.0862C21.6937 65.0862 22.1414 64.6384 22.1414 64.0862C22.1414 63.5339 21.6937 63.0862 21.1414 63.0862V65.0862ZM25.5834 5.89721C25.0311 5.89721 24.5834 6.34492 24.5834 6.89721C24.5834 7.44949 25.0311 7.89721 25.5834 7.89721V5.89721ZM25.7558 7.89721C26.3081 7.89721 26.7558 7.44949 26.7558 6.89721C26.7558 6.34492 26.3081 5.89721 25.7558 5.89721V7.89721ZM25.8884 22.358L25.5033 21.4351L25.4972 21.4377L25.8884 22.358ZM25.5171 22.9281H26.5171V22.9209L26.517 22.9137L25.5171 22.9281ZM25.5171 32.8862H24.5171L24.5171 32.8911L25.5171 32.8862ZM32.3326 44.8199L31.8203 45.6787L31.8225 45.68L32.3326 44.8199ZM37.3182 47.7768L36.8081 48.6369L37.3147 48.9373L37.8231 48.64L37.3182 47.7768ZM42.2376 44.8994L42.7425 45.7627L42.7542 45.7557L42.2376 44.8994ZM49 32.9657L50 32.9689V32.9657H49ZM49 22.358H50L50 22.3552L49 22.358ZM48.6022 21.7878L48.95 20.8503L48.9496 20.8501L48.6022 21.7878ZM37.5436 17.6906L37.1229 18.5978L37.159 18.6145L37.1962 18.6283L37.5436 17.6906ZM35.7006 36.3602L35.0989 37.1589L35.9191 37.7767L36.5149 36.9405L35.7006 36.3602ZM36.2519 47.1536V65.9425H38.2519V47.1536H36.2519ZM36.2519 65.9425C36.2519 66.7534 35.9298 67.5311 35.3564 68.1045L36.7706 69.5187C37.7191 68.5702 38.2519 67.2838 38.2519 65.9425H36.2519ZM35.3564 68.1045C34.783 68.6778 34.0054 69 33.1945 69V71C34.5358 71 35.8222 70.4671 36.7706 69.5187L35.3564 68.1045ZM33.1945 69H5.1105V71H33.1945V69ZM5.10723 69C4.70488 69.0013 4.30623 68.9232 3.93412 68.7701L3.17328 70.6197C3.78879 70.8729 4.44822 71.0021 5.11377 71L5.10723 69ZM3.93412 68.7701C3.56202 68.6171 3.22379 68.3921 2.93882 68.108L1.52691 69.5245C1.9983 69.9944 2.55778 70.3666 3.17328 70.6197L3.93412 68.7701ZM2.93882 68.108C2.65384 67.824 2.42774 67.4865 2.27347 67.1149L0.426329 67.8817C0.681525 68.4964 1.05554 69.0547 1.52691 69.5245L2.93882 68.108ZM2.27347 67.1149C2.11919 66.7433 2.03978 66.3449 2.03978 65.9425L0.039779 65.9425C0.0397754 66.6081 0.171134 67.2671 0.426329 67.8817L2.27347 67.1149ZM2.03978 65.9425V5.29279H0.039779V65.9425H2.03978ZM2.03978 5.29278C2.03978 4.89043 2.11919 4.49203 2.27347 4.12043L0.426329 3.35356C0.171135 3.96824 0.0397754 4.62724 0.039779 5.29279L2.03978 5.29278ZM2.27347 4.12043C2.42774 3.74883 2.65385 3.41133 2.93882 3.12729L1.52691 1.71077C1.05553 2.18062 0.681524 2.73888 0.426329 3.35356L2.27347 4.12043ZM2.93882 3.12729C3.22379 2.84325 3.56202 2.61825 3.93412 2.46518L3.17328 0.615555C2.55777 0.868742 1.99829 1.24093 1.52691 1.71077L2.93882 3.12729ZM3.93412 2.46518C4.30622 2.31212 4.70488 2.23401 5.10723 2.23532L5.11377 0.235333C4.44822 0.233158 3.78879 0.362367 3.17328 0.615555L3.93412 2.46518ZM5.1105 2.23533H33.1945V0.235327H5.1105V2.23533ZM33.1945 2.23533C33.596 2.23533 33.9936 2.31441 34.3645 2.46806L35.1299 0.620303C34.5163 0.366142 33.8586 0.235327 33.1945 0.235327V2.23533ZM34.3645 2.46806C34.7355 2.62171 35.0725 2.84692 35.3564 3.13084L36.7706 1.71662C36.301 1.247 35.7435 0.874466 35.1299 0.620303L34.3645 2.46806ZM35.3564 3.13084C35.6403 3.41475 35.8656 3.7518 36.0192 4.12275L37.867 3.35738C37.6128 2.74378 37.2403 2.18625 36.7706 1.71662L35.3564 3.13084ZM36.0192 4.12275C36.1729 4.49369 36.2519 4.89127 36.2519 5.29279H38.2519C38.2519 4.62863 38.1211 3.97098 37.867 3.35738L36.0192 4.12275ZM36.252 5.28101L36.1062 17.6655L38.106 17.6891L38.2519 5.30456L36.252 5.28101ZM12.5094 7.89721H20.5713V5.89721H12.5094V7.89721ZM17.1105 65.0862H21.1414V63.0862H17.1105V65.0862ZM25.5834 7.89721H25.7558V5.89721H25.5834V7.89721ZM1 59.6364H37.2519V57.6364H1V59.6364ZM1 13.7447H37.2519V11.7447H1V13.7447ZM36.721 16.7544L25.5033 21.4351L26.2735 23.2809L37.4912 18.6002L36.721 16.7544ZM25.4972 21.4377C25.2028 21.5628 24.9524 21.7728 24.7779 22.0408L26.4539 23.1322C26.4116 23.1971 26.3509 23.248 26.2796 23.2783L25.4972 21.4377ZM24.7779 22.0408C24.6033 22.3088 24.5126 22.6228 24.5172 22.9426L26.517 22.9137C26.5181 22.9912 26.4962 23.0672 26.4539 23.1322L24.7779 22.0408ZM24.5171 22.9281V32.8862H26.5171V22.9281H24.5171ZM24.5171 32.8911C24.5298 35.4711 25.2088 38.0041 26.4883 40.2445L28.2251 39.2527C27.1164 37.3115 26.5281 35.1167 26.5171 32.8813L24.5171 32.8911ZM26.4883 40.2445C27.7679 42.485 29.6045 44.3568 31.8203 45.6787L32.8449 43.9611C30.9251 42.8158 29.3337 41.1939 28.2251 39.2527L26.4883 40.2445ZM31.8225 45.68L36.8081 48.6369L37.8284 46.9167L32.8427 43.9598L31.8225 45.68ZM37.8231 48.64L42.7425 45.7626L41.7327 44.0362L36.8134 46.9136L37.8231 48.64ZM42.7542 45.7557C44.9583 44.4259 46.7827 42.5509 48.0518 40.3113L46.3118 39.3253C45.212 41.266 43.631 42.8908 41.721 44.0432L42.7542 45.7557ZM48.0518 40.3113C49.3209 38.0717 49.9919 35.543 50 32.9689L48 32.9626C47.993 35.1932 47.4116 37.3845 46.3118 39.3253L48.0518 40.3113ZM50 32.9657V22.358H48V32.9657H50ZM50 22.3552C49.9991 22.0273 49.8981 21.7075 49.7104 21.4385L48.0702 22.5829C48.0247 22.5177 48.0002 22.4402 48 22.3608L50 22.3552ZM49.7104 21.4385C49.5228 21.1695 49.2575 20.9643 48.95 20.8503L48.2544 22.7254C48.1799 22.6977 48.1156 22.648 48.0702 22.5829L49.7104 21.4385ZM48.9496 20.8501L37.8911 16.7529L37.1962 18.6283L48.2548 22.7255L48.9496 20.8501ZM37.9644 16.7834C37.7735 16.6949 37.5668 16.646 37.3565 16.6396L37.2959 18.6387C37.2361 18.6369 37.1773 18.623 37.1229 18.5978L37.9644 16.7834ZM37.3565 16.6396C37.1463 16.6332 36.9369 16.6695 36.7411 16.7463L37.4711 18.6083C37.4154 18.6302 37.3558 18.6405 37.2959 18.6387L37.3565 16.6396ZM31.0149 34.0827L35.0989 37.1589L36.3022 35.5614L32.2182 32.4852L31.0149 34.0827ZM36.5149 36.9405L43.7149 26.8367L42.0862 25.676L34.8862 35.7799L36.5149 36.9405Z" fill="white"/>
</svg>
