<svg width="50" height="53" viewBox="0 0 50 53" fill="none" xmlns="http://www.w3.org/2000/svg">
<path d="M41.4567 19.8944L49 18.7104M39.0983 12.9526L43.8152 10.1741M34.2859 7.81559L37.4559 0.921616M25.2721 6.82255L25.2339 1.3513M16.5258 8.15933L13.9763 0.921616M10.5102 12.8763L5.70738 10.26M8.40004 19.5029L1 18.252M18.3686 40.032C18.3686 35.105 15.3227 30.9705 13.6803 27.915C12.7679 26.2184 12.289 24.3225 12.2863 22.3961C12.2863 15.9127 18.2158 10.6515 24.6992 10.6515C31.1826 10.6515 37.1122 15.9127 37.1122 22.3961C37.1095 24.3225 36.6306 26.2184 35.7181 27.915C34.0758 30.9705 31.0298 35.105 31.0298 40.032M28.0125 47.8713V48.6734C28.046 49.0975 27.9913 49.524 27.852 49.9259C27.7126 50.3279 27.4916 50.6967 27.2029 51.0092C26.9141 51.3216 26.5638 51.5709 26.174 51.7415C25.7842 51.912 25.3634 52 24.9379 52C24.5125 52 24.0916 51.912 23.7018 51.7415C23.3121 51.5709 22.9618 51.3216 22.673 51.0092C22.3842 50.6967 22.1632 50.3279 22.0239 49.9259C21.8845 49.524 21.8299 49.0975 21.8633 48.6734V47.8713M16.7931 21.6799C16.8408 20.7399 17.0733 19.8185 17.4773 18.9684C17.8814 18.1183 18.4491 17.3562 19.1479 16.7257C19.8467 16.0952 20.6629 15.6086 21.5499 15.2938C22.437 14.979 23.3773 14.8421 24.3173 14.891M17.9198 39.7647H31.9465C33.0645 39.7647 33.9708 40.671 33.9708 41.7889V41.7985C33.9708 42.9165 33.0645 43.8228 31.9465 43.8228H17.9198C16.8019 43.8228 15.8956 42.9165 15.8956 41.7985V41.7889C15.8956 40.671 16.8019 39.7647 17.9198 39.7647ZM19.0275 43.8132H30.8389C31.9568 43.8132 32.8631 44.7195 32.8631 45.8375V45.847C32.8631 46.965 31.9568 47.8713 30.8389 47.8713H19.0275C17.9095 47.8713 17.0032 46.965 17.0032 45.847V45.8375C17.0032 44.7195 17.9095 43.8132 19.0275 43.8132Z" stroke="white" stroke-width="2"/>
</svg>
