<svg width="51" height="51" viewBox="0 0 51 51" fill="none" xmlns="http://www.w3.org/2000/svg">
<path d="M31.9461 47.7743C27.2406 49.3581 22.154 49.4082 17.4182 47.9177C12.6823 46.4271 8.54144 43.4726 5.59127 39.4793C2.6411 35.486 1.03376 30.6598 1.00053 25.695C0.967292 20.7302 2.50987 15.8829 5.40632 11.8505C8.30276 7.81804 12.4037 4.80837 17.1192 3.25453C21.8347 1.70069 26.9215 1.68277 31.6478 3.20336C36.374 4.72395 40.4961 7.70465 43.4209 11.7166C46.3457 15.7285 47.9224 20.5649 47.9241 25.5297C47.8483 27.4328 47.6179 29.3266 47.2352 31.1923M29.9925 43.4141C28.3047 45.3318 26.4543 47.1001 24.4621 48.6992V1.78455M35.4664 28.0779C35.5469 26.5521 35.5185 25.0224 35.3814 23.5006C34.714 15.1173 30.7952 7.32721 24.4621 1.79398C21.0259 4.78901 18.2654 8.48 16.3634 12.6224C14.4614 16.7649 13.4613 21.2642 13.4294 25.8223C13.4294 41.1113 20.3 45.6414 24.4337 48.6992M4.04837 13.9686H44.989M4.69013 38.1101H29.2186M1 25.8223L47.9241 25.2466M44.8191 48.9824L49 44.792L41.4499 37.2419L45.744 34.4955C45.8066 34.4585 45.8564 34.4034 45.887 34.3375C45.9175 34.2715 45.9273 34.1978 45.915 34.1262C45.9027 34.0545 45.869 33.9883 45.8182 33.9363C45.7674 33.8843 45.7021 33.8489 45.6308 33.8349L31.2006 30.4562C31.141 30.4441 31.0793 30.4469 31.021 30.4644C30.9628 30.4819 30.9098 30.5136 30.8668 30.5566C30.8238 30.5996 30.7921 30.6526 30.7746 30.7108C30.7571 30.7691 30.7543 30.8307 30.7664 30.8903L33.8997 45.5942C33.9148 45.6657 33.9508 45.7311 34.0031 45.782C34.0554 45.833 34.1217 45.8672 34.1936 45.8804C34.2654 45.8936 34.3396 45.885 34.4066 45.8559C34.4736 45.8268 34.5304 45.7784 34.5698 45.7169L37.269 41.4322L44.8191 48.9824Z" stroke="white" stroke-width="2"/>
</svg>
