<svg width="50" height="52" viewBox="0 0 50 52" fill="none" xmlns="http://www.w3.org/2000/svg">
<path d="M39.4368 28.3883C45.1792 21.7006 49.6142 12.9111 48.9303 2.02977C48.9303 2.02977 22.602 -1.93255 6.8231 33.8591L17.5234 44.5593C21.1192 42.9094 24.5562 40.9334 27.7912 38.6561M37.7372 2.9047C38.1809 5.51477 39.438 7.91791 41.329 9.77093C43.2199 11.6239 45.648 12.8321 48.2666 13.2228M7.76843 31.7975L2.4384 32.4813C2.39164 32.4865 2.34433 32.4795 2.30111 32.4609C2.25789 32.4423 2.22024 32.4128 2.19184 32.3753C2.16345 32.3378 2.1453 32.2935 2.13916 32.2469C2.13302 32.2002 2.1391 32.1528 2.15681 32.1092L6.09902 23.0582C6.281 22.6728 6.55181 22.336 6.88922 22.0755C7.22662 21.815 7.62099 21.6383 8.03996 21.5598L14.6673 20.172M19.4844 43.4431L18.8006 48.7731C18.7954 48.8198 18.8024 48.8672 18.821 48.9104C18.8396 48.9536 18.8691 48.9913 18.9066 49.0196C18.9441 49.048 18.9883 49.0662 19.035 49.0723C19.0816 49.0785 19.1291 49.0724 19.1727 49.0547L28.2237 45.1125M15.1299 42.1659C12.7465 49.6279 1.0003 50 1.0003 50C1.0003 50 0.829338 38.5354 8.64336 35.6391M37.7372 31.4555V39.0181L41.3375 41.7837M38.7127 18.4623C38.7127 21.9059 35.9212 24.6975 32.4776 24.6975C29.0341 24.6975 26.2425 21.9059 26.2425 18.4623C26.2425 15.0188 29.0341 12.2272 32.4776 12.2272C35.9212 12.2272 38.7127 15.0188 38.7127 18.4623ZM48.0453 38.6963C48.0453 44.3893 43.4302 49.0044 37.7372 49.0044C32.0443 49.0044 27.4292 44.3893 27.4292 38.6963C27.4292 33.0033 32.0443 28.3883 37.7372 28.3883C43.4302 28.3883 48.0453 33.0033 48.0453 38.6963Z" stroke="white" stroke-width="2"/>
</svg>
