<svg width="48" height="48" viewBox="0 0 48 48" fill="none" xmlns="http://www.w3.org/2000/svg">
<rect width="48" height="48" rx="24" fill="#AC2BAC"/>
<path d="M23.5 18.6094C20.5 18.6094 18.1094 21.0469 18.1094 24C18.1094 27 20.5 29.3906 23.5 29.3906C26.4531 29.3906 28.8906 27 28.8906 24C28.8906 21.0469 26.4531 18.6094 23.5 18.6094ZM23.5 27.5156C21.5781 27.5156 19.9844 25.9688 19.9844 24C19.9844 22.0781 21.5312 20.5312 23.5 20.5312C25.4219 20.5312 26.9688 22.0781 26.9688 24C26.9688 25.9688 25.4219 27.5156 23.5 27.5156ZM30.3438 18.4219C30.3438 17.7188 29.7812 17.1562 29.0781 17.1562C28.375 17.1562 27.8125 17.7188 27.8125 18.4219C27.8125 19.125 28.375 19.6875 29.0781 19.6875C29.7812 19.6875 30.3438 19.125 30.3438 18.4219ZM33.9062 19.6875C33.8125 18 33.4375 16.5 32.2188 15.2812C31 14.0625 29.5 13.6875 27.8125 13.5938C26.0781 13.5 20.875 13.5 19.1406 13.5938C17.4531 13.6875 16 14.0625 14.7344 15.2812C13.5156 16.5 13.1406 18 13.0469 19.6875C12.9531 21.4219 12.9531 26.625 13.0469 28.3594C13.1406 30.0469 13.5156 31.5 14.7344 32.7656C16 33.9844 17.4531 34.3594 19.1406 34.4531C20.875 34.5469 26.0781 34.5469 27.8125 34.4531C29.5 34.3594 31 33.9844 32.2188 32.7656C33.4375 31.5 33.8125 30.0469 33.9062 28.3594C34 26.625 34 21.4219 33.9062 19.6875ZM31.6562 30.1875C31.3281 31.125 30.5781 31.8281 29.6875 32.2031C28.2812 32.7656 25 32.625 23.5 32.625C21.9531 32.625 18.6719 32.7656 17.3125 32.2031C16.375 31.8281 15.6719 31.125 15.2969 30.1875C14.7344 28.8281 14.875 25.5469 14.875 24C14.875 22.5 14.7344 19.2188 15.2969 17.8125C15.6719 16.9219 16.375 16.2188 17.3125 15.8438C18.6719 15.2812 21.9531 15.4219 23.5 15.4219C25 15.4219 28.2812 15.2812 29.6875 15.8438C30.5781 16.1719 31.2812 16.9219 31.6562 17.8125C32.2188 19.2188 32.0781 22.5 32.0781 24C32.0781 25.5469 32.2188 28.8281 31.6562 30.1875Z" fill="white"/>
</svg>
