<svg width="48" height="48" viewBox="0 0 48 48" fill="none" xmlns="http://www.w3.org/2000/svg">
<path d="M23.5 18.6094C26.4531 18.6094 28.8906 21.0469 28.8906 24C28.8906 27 26.4531 29.3906 23.5 29.3906C20.5 29.3906 18.1094 27 18.1094 24C18.1094 21.0469 20.5 18.6094 23.5 18.6094ZM23.5 27.5156C25.4219 27.5156 26.9688 25.9688 26.9688 24C26.9688 22.0781 25.4219 20.5312 23.5 20.5312C21.5312 20.5312 19.9844 22.0781 19.9844 24C19.9844 25.9688 21.5781 27.5156 23.5 27.5156ZM30.3438 18.4219C30.3438 19.125 29.7812 19.6875 29.0781 19.6875C28.375 19.6875 27.8125 19.125 27.8125 18.4219C27.8125 17.7188 28.375 17.1562 29.0781 17.1562C29.7812 17.1562 30.3438 17.7188 30.3438 18.4219ZM33.9062 19.6875C34 21.4219 34 26.625 33.9062 28.3594C33.8125 30.0469 33.4375 31.5 32.2188 32.7656C31 33.9844 29.5 34.3594 27.8125 34.4531C26.0781 34.5469 20.875 34.5469 19.1406 34.4531C17.4531 34.3594 16 33.9844 14.7344 32.7656C13.5156 31.5 13.1406 30.0469 13.0469 28.3594C12.9531 26.625 12.9531 21.4219 13.0469 19.6875C13.1406 18 13.5156 16.5 14.7344 15.2812C16 14.0625 17.4531 13.6875 19.1406 13.5938C20.875 13.5 26.0781 13.5 27.8125 13.5938C29.5 13.6875 31 14.0625 32.2188 15.2812C33.4375 16.5 33.8125 18 33.9062 19.6875ZM31.6562 30.1875C32.2188 28.8281 32.0781 25.5469 32.0781 24C32.0781 22.5 32.2188 19.2188 31.6562 17.8125C31.2812 16.9219 30.5781 16.1719 29.6875 15.8438C28.2812 15.2812 25 15.4219 23.5 15.4219C21.9531 15.4219 18.6719 15.2812 17.3125 15.8438C16.375 16.2188 15.6719 16.9219 15.2969 17.8125C14.7344 19.2188 14.875 22.5 14.875 24C14.875 25.5469 14.7344 28.8281 15.2969 30.1875C15.6719 31.125 16.375 31.8281 17.3125 32.2031C18.6719 32.7656 21.9531 32.625 23.5 32.625C25 32.625 28.2812 32.7656 29.6875 32.2031C30.5781 31.8281 31.3281 31.125 31.6562 30.1875Z" fill="white"/>
</svg>
