<svg width="48" height="48" viewBox="0 0 48 48" fill="none" xmlns="http://www.w3.org/2000/svg">
<rect width="48" height="48" rx="24" fill="#55ACEE"/>
<path d="M34.5156 19.125C35.4531 18.4219 36.2969 17.5781 36.9531 16.5938C36.1094 16.9688 35.125 17.25 34.1406 17.3438C35.1719 16.7344 35.9219 15.7969 36.2969 14.625C35.3594 15.1875 34.2812 15.6094 33.2031 15.8438C32.2656 14.8594 31 14.2969 29.5938 14.2969C26.875 14.2969 24.6719 16.5 24.6719 19.2188C24.6719 19.5938 24.7188 19.9688 24.8125 20.3438C20.7344 20.1094 17.0781 18.1406 14.6406 15.1875C14.2188 15.8906 13.9844 16.7344 13.9844 17.6719C13.9844 19.3594 14.8281 20.8594 16.1875 21.75C15.3906 21.7031 14.5938 21.5156 13.9375 21.1406V21.1875C13.9375 23.5781 15.625 25.5469 17.875 26.0156C17.5 26.1094 17.0312 26.2031 16.6094 26.2031C16.2812 26.2031 16 26.1562 15.6719 26.1094C16.2812 28.0781 18.1094 29.4844 20.2656 29.5312C18.5781 30.8438 16.4688 31.6406 14.1719 31.6406C13.75 31.6406 13.375 31.5938 13 31.5469C15.1562 32.9531 17.7344 33.75 20.5469 33.75C29.5938 33.75 34.5156 26.2969 34.5156 19.7812C34.5156 19.5469 34.5156 19.3594 34.5156 19.125Z" fill="white"/>
</svg>
